<svg xmlns="http://www.w3.org/2000/svg" width="15" height="14" viewBox="0 0 50.563 38.094">
  <defs>
    <style>
      .cls-1 {
        fill: #ffcc01;
        fill-rule: evenodd;
      }
    </style>
  </defs>
  <path id="gmail" class="cls-1" d="M251.444,882.194l-17.886,16.173a3.546,3.546,0,0,0,2.5,1.035h43.291a3.528,3.528,0,0,0,2.486-1.035l-17.875-16.173-6.256,5.777Zm27.9-20.9H236.053a3.53,3.53,0,0,0-2.488,1.04L257.7,884.16l24.139-21.829A3.535,3.535,0,0,0,279.344,861.3Zm-46.927,35,17.455-15.647-17.455-16.007V896.3Zm50.563,0V864.633l-17.455,16.018Z" transform="translate(-232.406 -861.312)"/>
</svg>
