<svg xmlns="http://www.w3.org/2000/svg" width="15" height="14" viewBox="0 0 59 46.562">
  <defs>
    <style>
      .cls-1 {
        fill: #ffcc01;
        fill-rule: evenodd;
      }
    </style>
  </defs>
  <path id="home_copy" data-name="home copy" class="cls-1" d="M258.5,956.826l-21.045,17.21a0.449,0.449,0,0,1-.019.109,0.5,0.5,0,0,0-.018.109v17.427a2.221,2.221,0,0,0,.7,1.634,2.258,2.258,0,0,0,1.646.691H253.81V980.063h9.37v13.943h14.054a2.259,2.259,0,0,0,1.647-.691,2.222,2.222,0,0,0,.7-1.633V974.254a0.522,0.522,0,0,0-.037-0.218Zm29.1,13.289-8.015-6.608V948.693a1.125,1.125,0,0,0-.33-0.835,1.142,1.142,0,0,0-.842-0.327h-7.027a1.145,1.145,0,0,0-.842.327,1.124,1.124,0,0,0-.329.835v7.08l-8.931-7.407a4.568,4.568,0,0,0-5.562,0L229.4,970.115a1.052,1.052,0,0,0-.4.78,1.166,1.166,0,0,0,.256.854l2.269,2.687a1.254,1.254,0,0,0,.769.4,1.36,1.36,0,0,0,.878-0.254l25.328-20.95,25.327,20.95a1.136,1.136,0,0,0,.769.254h0.11a1.254,1.254,0,0,0,.769-0.4l2.269-2.687A1.171,1.171,0,0,0,288,970.9,1.055,1.055,0,0,0,287.592,970.115Z" transform="translate(-229 -947.438)"/>
</svg>
