<svg xmlns="http://www.w3.org/2000/svg" width="15" height="14" viewBox="0 0 48.468 48.688">
  <defs>
    <style>
      .cls-1 {
        fill: #ffcc01;
        fill-rule: evenodd;
      }
    </style>
  </defs>
  <path id="phone" class="cls-1" d="M281.887,810.432a2.362,2.362,0,0,1-.719,2.063l-6.828,6.81a3.849,3.849,0,0,1-1.206.876,4.972,4.972,0,0,1-1.463.465c-0.034,0-.137.008-0.308,0.026s-0.394.026-.668,0.026a23.513,23.513,0,0,1-3.157-.336,23.866,23.866,0,0,1-5.339-1.651,44.711,44.711,0,0,1-7.161-3.946,53.408,53.408,0,0,1-8.522-7.222,56.361,56.361,0,0,1-5.955-6.81,48.38,48.38,0,0,1-3.8-6.01,32.329,32.329,0,0,1-2.156-5,26.655,26.655,0,0,1-.976-3.87,12.853,12.853,0,0,1-.2-2.553q0.051-.928.051-1.032a5.072,5.072,0,0,1,.462-1.47,3.865,3.865,0,0,1,.873-1.212l6.828-6.861a2.254,2.254,0,0,1,1.643-.722,1.905,1.905,0,0,1,1.18.386,3.569,3.569,0,0,1,.873.955l5.493,10.472a2.52,2.52,0,0,1,.257,1.805,3.219,3.219,0,0,1-.873,1.651L247.7,789.8a0.856,0.856,0,0,0-.18.335,1.261,1.261,0,0,0-.077.387,9.346,9.346,0,0,0,.924,2.476,22.762,22.762,0,0,0,1.9,3.018,33.436,33.436,0,0,0,3.645,4.1,34.049,34.049,0,0,0,4.107,3.689,23.62,23.62,0,0,0,3,1.934,7.986,7.986,0,0,0,1.848.748l0.642,0.129a1.232,1.232,0,0,0,.334-0.077,0.863,0.863,0,0,0,.334-0.181l2.926-2.992a3.135,3.135,0,0,1,2.156-.825,2.676,2.676,0,0,1,1.386.309H270.7l9.908,5.881A2.6,2.6,0,0,1,281.887,810.432Z" transform="translate(-233.438 -772)"/>
</svg>
